;fileheader
; (5.01 :patc (om-make-point 217 122) (om-make-point 105 115) (om-make-point 790 449) "non documentation" 183)
;endfileheader
(in-package :om)(load-lib-for '("ma-lib"))(setf *om-current-persistent* (om-load-patch1 "window-shift" '((om-load-boxcall 'bastype "aux2" 't 'nil (om-make-point 407 236) (om-make-point 12 22) 2 "2" nil) (om-load-boxcall 'bastype "aux1" 't 'nil (om-make-point 337 224) (om-make-point 33 27) 3 "3" nil) (om-load-boxcall 'bastype "aux" 't 'nil (om-make-point 148 195) (om-make-point 187 28) (list 'a 'b 'c 'd 'e 'f 'g 'h 'i 'j 'k 'l 'm 'n 'o 'p 'q 'r 's 't) "(a b c d e f g h i j k l m n o p q r s t)" nil) (om-load-boxcall 'genfun "WINDOW-SHIFT" 'mfl::window-shift '((om-load-inputfun 'input-funbox "list1" "LIST" (list 'mfl::a 'mfl::b 'mfl::c 'mfl::d 'mfl::e 'mfl::f 'mfl::g)) (om-load-inputfun 'input-funbox "window" "WINDOW" 3) (om-load-inputfun 'input-funbox "step" "STEP" 2)) (om-make-point 276 281) (om-make-point 165 63) nil nil "window-shift" 1) (om-load-boxcomment "comment1" (om-make-point 375 106) '"read a list by a window sizee of <window> with a step of <step>.  This function build sub-lists" "" (om-make-point 226 78) nil (om-make-color 0 0 0) (om-make-font "Arial" 24 :family nil :style 'nil :mode '(:srcor))) (om-load-boxcomment "comment" (om-make-point 281 65) '"window-shift" "" (om-make-point 253 22) nil (om-make-color 0 0 0) (om-make-font "Arial" 48 :family nil :style 'nil :mode '(:srcor)))) '((2 0 3 0 nil 0) (1 0 3 1 nil 0) (0 0 3 2 nil 0)) nil 5.01))


